<?xml version="1.0" encoding="utf-8"?>
<svg width="30" height="30" viewBox="0 0 960 960" fill="none" xmlns="http://www.w3.org/2000/svg">
  <rect width="30" height="30" fill="gray"/>
  <path fill-rule="evenodd" clip-rule="evenodd" d="M 369.773 225.089 L 369.773 736.788 C 494.501 718.633 590.308 611 590.308 480.937 C 590.308 350.875 494.501 243.244 369.773 225.089 Z M 341.309 813.234 C 338.347 813.312 335.373 813.352 332.391 813.352 C 149.251 813.352 0.784 666.901 0.784 483.313 C 0.784 299.727 149.251 148.525 332.391 148.525 C 335.373 148.525 338.347 148.564 341.309 148.643 C 342.435 148.564 343.572 148.525 344.719 148.525 L 959.297 148.525 L 959.297 813.352 L 344.719 813.352 C 343.572 813.352 342.435 813.312 341.309 813.234 Z M 296.084 736.94 L 296.084 224.936 C 170.831 242.625 74.475 350.502 74.475 480.937 C 74.475 611.375 170.831 719.252 296.084 736.94 Z M 540.835 222.394 L 885.606 222.394 L 885.606 739.482 L 540.835 739.482 C 615.963 678.541 663.997 585.362 663.997 480.937 C 663.997 376.514 615.963 283.335 540.835 222.394 Z" fill="gray" style=""/>
</svg>